<svg width="32" height="32" viewBox="0 0 32 32" fill="none" xmlns="http://www.w3.org/2000/svg">
<path d="M3.33334 16.5467V10.4534C3.33334 8.86674 4.30668 7.45335 5.78668 6.89335L16.3733 2.89335C18.0267 2.26669 19.8 3.49339 19.8 5.26673V10.3334M9.33334 16H18.6667M24.0533 18.0667C23.4933 18.6133 23.1733 19.4 23.2533 20.24C23.3733 21.68 24.6933 22.7333 26.1333 22.7333H28.6667V24.32C28.6667 27.08 26.4133 29.3334 23.6533 29.3334H8.34668C5.58668 29.3334 3.33334 27.08 3.33334 24.32V15.3467C3.33334 12.5867 5.58668 10.3334 8.34668 10.3334H23.6533C26.4133 10.3334 28.6667 12.5867 28.6667 15.3467V17.2667H25.9733C25.2267 17.2667 24.5467 17.56 24.0533 18.0667ZM30.0784 18.6269V21.3736C30.0784 22.107 29.4918 22.7069 28.7451 22.7336H26.1318C24.6918 22.7336 23.3718 21.6803 23.2518 20.2403C23.1718 19.4003 23.4918 18.6136 24.0518 18.0669C24.5451 17.5602 25.2251 17.2669 25.9718 17.2669H28.7451C29.4918 17.2936 30.0784 17.8936 30.0784 18.6269Z" stroke="black" stroke-width="1.5" stroke-linecap="round" stroke-linejoin="round"/>
</svg>
