<svg width="14" height="23" viewBox="0 0 14 23" fill="none" xmlns="http://www.w3.org/2000/svg">
<path d="M14 7.76688C14 4.86057 11.65 2.50545 8.75 2.50545H8V1.50327C8 0.651416 7.35 0 6.5 0C5.65 0 5 0.651416 5 1.50327V2.50545H1.5C0.65 2.50545 0 3.15686 0 4.00871C0 4.66013 0.4 5.21133 1 5.41176V17.5882C0.4 17.7887 0 18.3399 0 18.9913C0 19.8431 0.65 20.4946 1.5 20.4946H5V21.4967C5 22.3486 5.65 23 6.5 23C7.35 23 8 22.3486 8 21.4967V20.4946H8.75C11.65 20.5447 14 18.1895 14 15.2832C14 13.8301 13.4 12.4771 12.4 11.5251C13.4 10.573 14 9.22004 14 7.76688ZM8.75 17.5381H4V13.0283H8.75C10 13.0283 11 14.0305 11 15.2832C11 16.5359 10 17.5381 8.75 17.5381ZM8.75 10.0218H4V5.51198H8.75C10 5.51198 11 6.51416 11 7.76688C11 9.01961 10 10.0218 8.75 10.0218Z" fill="black"/>
</svg>
