<svg width="32" height="32" viewBox="0 0 32 32" fill="none" xmlns="http://www.w3.org/2000/svg">
<path d="M19.0156 20.5847H12.3489M15.6823 17.3307V23.9974M16.88 3.35753L16.84 3.45087L12.9733 12.4242M16.88 3.35753C12.9067 1.83753 10.9333 2.75753 9.18666 6.79753C9.14666 6.8642 9.11999 6.9442 9.09332 7.0242L8.99999 7.23753L8.94666 7.37087M16.88 3.35753C17.08 3.4242 17.2667 3.51753 17.4667 3.59753L20.4133 4.83753C22.0533 5.51753 23.2 6.2242 23.8933 7.07753C24.0267 7.23753 24.1333 7.3842 24.2267 7.55753C24.3467 7.7442 24.44 7.93087 24.4933 8.13087C24.5467 8.25087 24.5867 8.37087 24.6133 8.47753C24.9733 9.59753 24.76 10.9709 24.0667 12.6909C23.4667 12.5042 22.8267 12.4242 22.1867 12.4242H12.9733M12.9733 12.4242H9.17332C8.26666 12.4242 7.39999 12.6109 6.61332 12.9442M6.61332 12.9442L8.94666 7.37087M6.61332 12.9442C4.29332 13.9442 2.66666 16.2509 2.66666 18.9309V15.0242C2.66666 11.2375 5.35999 8.07754 8.94666 7.37087M28.6956 18.9312V21.5312C28.6956 21.7978 28.6823 22.0645 28.6689 22.3312C28.4156 26.9845 25.8156 29.3312 20.8823 29.3312H10.4823C10.1623 29.3312 9.84228 29.3045 9.53561 29.2645C5.29561 28.9845 3.02895 26.7178 2.74895 22.4778C2.70895 22.1712 2.68228 21.8512 2.68228 21.5312V18.9312C2.68228 16.2512 4.30895 13.9445 6.62895 12.9445C7.42895 12.6112 8.28228 12.4245 9.18895 12.4245H22.2023C22.8556 12.4245 23.4956 12.5178 24.0823 12.6912C26.7356 13.5045 28.6956 15.9845 28.6956 18.9312ZM28.6915 15.0236V18.9302C28.6915 15.9969 26.7448 13.5036 24.0781 12.7036C24.7714 10.9702 24.9714 9.61023 24.6381 8.4769C24.6114 8.3569 24.5714 8.2369 24.5181 8.13023C26.9981 9.41023 28.6915 12.0369 28.6915 15.0236Z" stroke="black" stroke-width="1.5" stroke-linecap="round" stroke-linejoin="round"/>
</svg>
